<?xml version="1.0" encoding="UTF-8"?>
<!DOCTYPE svg PUBLIC "-//W3C//DTD SVG 1.1//EN" "http://www.w3.org/Graphics/SVG/1.1/DTD/svg11.dtd">
<!-- Creator: CorelDRAW X5 -->
<svg xmlns="http://www.w3.org/2000/svg" xml:space="preserve" width="100mm" height="82mm" style="shape-rendering:geometricPrecision; text-rendering:geometricPrecision; image-rendering:optimizeQuality; fill-rule:evenodd; clip-rule:evenodd"
viewBox="0 0 10000 8200"
 xmlns:xlink="http://www.w3.org/1999/xlink">
 <defs>
  <style type="text/css">
   <![CDATA[
    .str0 {stroke:#333333;stroke-width:7.62}
    .fil0 {fill:#333333}
   ]]>
  </style>
 </defs>
 <g id="Слой_x0020_1">
  <metadata id="CorelCorpID_0Corel-Layer"/>
  <g id="_344792904">
   <path class="fil0" d="M4658 3633l147 342c-18,7 -35,18 -49,29l-223 -300c39,-29 81,-54 126,-72l-1 1zm-413 -1110c219,-105 474,71 449,318 -15,142 -129,250 -258,277 -62,13 -103,13 -141,24 -163,49 -239,275 -274,531 33,27 53,69 48,115 -4,47 -33,87 -71,108 -16,233 -12,457 -22,572l-116 1 11 -573c-44,-23 -73,-69 -73,-121 -5,33 -21,62 -45,82l-17 590c-28,-16 -71,-35 -114,-21l-26 -553c-44,-25 -71,-75 -67,-128 3,-41 25,-77 57,-99l-30 -644c33,30 84,62 170,103l48 23 -15 530c25,25 41,60 41,98 7,-46 36,-83 76,-102l15 -756c147,-134 305,-145 354,-377zm-41 309c-3,-15 -3,-30 -2,-46 5,-64 45,-118 99,-145l0 1c27,-14 59,-20 91,-17 96,8 167,92 160,188 -8,96 -93,167 -188,160 -80,-6 -143,-66 -157,-142l-2 1 -1 0zm472 1358l-1 0 1 0 0 0zm0 0l-361 23c-4,-36 -4,-72 -1,-109 6,-72 26,-142 57,-203l309 230 0 0c-1,7 -2,16 -3,23 -1,13 -1,24 0,37l-1 -1zm41 108l-308 167c-39,-58 -68,-122 -84,-191l353 -63c6,32 19,61 38,86l1 1zm373 -195l1 0 -1 0 0 0zm17 59c-2,-9 -14,-49 -16,-59l308 -119c32,118 -167,154 -292,177zm-221 -571l7 356 -96 -351c28,-4 59,-5 88,-4l0 -1zm206 612c-6,44 -45,89 -78,120 0,0 -16,-41 -35,-59 -23,22 -56,35 -90,32 -64,-5 -111,-62 -106,-126 5,-64 62,-111 126,-106 73,6 139,62 183,139l0 1zm-2658 -34l-274 -331c276,-135 655,-292 930,-315 -334,184 -549,223 -656,646zm49 -16c69,-363 347,-441 620,-623 -188,230 -230,322 -222,595 -192,-57 -230,-27 -398,27zm1987 -1426c18,22 27,51 25,82 -5,64 -62,111 -126,106 -23,-2 -44,-11 -61,-24l162 -165 0 1zm-82 -44c24,2 46,12 63,25l-163 165c-19,-23 -29,-52 -26,-84 5,-64 62,-111 126,-106zm-519 1931c58,29 82,112 98,183 16,72 18,87 -22,97 -112,26 -343,-17 -466,-75 79,-145 201,-228 389,-205l1 0zm-412 194c-37,-11 -66,-17 -94,-30 -108,-53 -30,-182 43,-238 200,-152 389,-77 464,62 -196,-90 -353,6 -414,206l1 1zm1453 -711c46,4 80,44 76,90 -4,46 -44,80 -90,76 -46,-4 -80,-44 -76,-90 4,-46 44,-80 90,-76zm430 -253l47 105 -306 133c-29,-64 -90,-111 -164,-122l29 -364c166,22 307,117 392,248l1 0zm-604 -1055c42,218 41,329 234,470l112 83c-314,-78 -366,-75 -663,64 -19,-94 -26,-145 -64,-233 276,-17 336,-132 381,-383l0 -1zm-2344 1693c-4,-14 -7,-27 -9,-41l-338 -72 0 0c2,26 5,53 9,80l338 35 0 -1zm91 -281c-22,90 -23,139 -9,209l299 -44c-6,-81 40,-93 93,-208 -160,-37 -238,-24 -382,44l0 -1zm1947 299l57 30c270,-13 642,-60 551,-205 -43,41 -102,64 -166,59 -33,-3 -63,-13 -89,-28 -125,47 -256,106 -352,144zm-1941 -27c13,1 254,-51 292,-59 62,302 151,474 410,629 -292,-119 -591,-246 -702,-569l0 -1zm2896 -938l0 0 0 0c194,162 309,412 286,682 -2,25 -5,50 -9,75 -330,1425 -3178,1372 -3589,365 -74,-178 -111,-391 -52,-579 21,-67 55,-129 99,-184l20 -24 250 286 0 -2 36 43c-14,71 -18,143 -9,213l0 1c6,47 18,93 37,138 310,724 2088,784 2769,298 15,-10 28,-21 43,-31l112 -95c-43,26 -79,43 -126,57l0 0 0 0c-101,30 -317,61 -570,77 -310,20 -570,11 -627,-19 -3,0 -6,0 -9,0 -47,-195 -52,-158 -181,-292l306 -9c-74,-133 -109,-289 -96,-451 55,-651 821,-955 1311,-549l-1 1z"/>
   <path class="fil0" d="M3451 2317l744 -357 897 -105c58,5 108,19 152,22l193 21c5,44 40,81 84,84 43,3 82,-24 96,-65l5 1 -4 -2c2,-7 4,-15 4,-22 4,-54 -34,-101 -84,-105 -34,-3 -65,14 -83,41l-868 -461 -2034 -1352 1031 1268 19 638 -151 396 -1 -2z"/>
   <path class="fil0" d="M4200 2034c45,159 166,290 98,429 -49,-4 -48,-65 -90,-84 -3,225 -70,299 -259,419l-23 -156 -177 417c-240,-117 -162,-96 -259,-385l-57 82c-33,-122 -82,-230 3,-359 1,-12 1,-17 6,-18l757 -345 0 1z"/>
   <polygon class="fil0" points="3533,0 3907,849 4439,1240 4082,837 "/>
   <path class="fil0" d="M5896 5339c258,-311 504,-466 738,-466 121,0 224,30 310,90 87,60 156,159 207,297 36,96 53,244 53,442l0 940c0,139 12,234 35,282 17,40 46,71 85,94 39,22 111,34 218,34l0 86 -1090 0 0 -86 46 0c103,0 175,-17 216,-47 41,-32 69,-77 85,-138 6,-24 9,-100 9,-226l0 -901c0,-201 -26,-345 -78,-436 -53,-90 -141,-135 -264,-135 -190,0 -381,104 -570,313l0 1160c0,148 8,240 26,275 22,47 54,81 93,103 40,21 119,33 239,33l0 86 -1089 0 0 -86 48 0c111,0 188,-28 227,-85 39,-58 58,-166 58,-325l0 -818c0,-264 -5,-425 -18,-482 -12,-58 -30,-98 -55,-118 -24,-20 -58,-32 -100,-32 -44,0 -99,13 -161,36l-11 -26c222,-87 364,-185 540,-325l202 -4 0 466 0 -1z"/>
   <path class="fil0" d="M3573 5587l469 972 452 -1112c90,-29 177,-65 259,-104l-6 16 -897 2195c-87,213 -201,374 -341,483 -141,109 -275,163 -406,163 -95,0 -172,-27 -233,-82 -61,-55 -91,-117 -91,-187 0,-67 22,-122 65,-163 44,-41 105,-62 182,-62 53,0 125,18 216,54 64,24 104,36 121,36 47,0 100,-25 158,-75 57,-50 115,-146 171,-289l157 -381 -713 -1495c142,20 288,30 435,30l3 0z"/>
   <path class="fil0" d="M7657 5110l1040 0 0 86c-213,-5 -178,41 -46,250l157 250 180 -250c372,-518 325,-487 694,-506 17,-1 302,-2 320,-3l0 89c-16,1 -299,3 -313,5 -60,9 -112,28 -159,60 -79,54 -186,173 -323,355l-301 402 549 787c135,193 230,310 288,350 58,39 132,62 224,66l0 86 -1040 0 0 -86c73,0 128,-17 168,-48 30,-22 46,-52 46,-88 0,-37 -52,-130 -155,-278l-322 -471 -354 471c-109,145 -163,232 -163,259 0,39 18,73 55,105 36,32 90,48 163,51l0 86 -719 0 0 -86c58,-8 107,-28 151,-61 61,-46 163,-165 308,-355l463 -612 -418 -606c-168,-244 -145,-197 -490,-220l0 -86 -2 -2z"/>
   <path class="fil0 str0" d="M2724 6237l80 17 -279 884 -2525 0 0 -88 123 0c138,0 237,-45 295,-134 34,-51 50,-170 50,-356l0 -2102c0,-204 -22,-331 -67,-381 -62,-70 -156,-106 -279,-106l-123 0 0 -89 1477 0 0 89c-173,-2 -294,14 -365,47 -69,34 -118,77 -143,128 -25,50 -39,174 -39,367l0 2046c0,133 13,224 39,274 19,34 48,58 88,75 40,16 165,24 375,24l238 0c250,0 426,-18 527,-55 101,-37 193,-103 276,-196 83,-93 167,-241 249,-443l1 -1z"/>
  </g>
 </g>
</svg>
